<svg width="36" height="36" viewBox="0 0 36 36" fill="none" xmlns="http://www.w3.org/2000/svg">
<g clip-path="url(#clip0_505_178)">
<path d="M22.3324 9.00694L17.6777 13.6616L13.023 9.00694C11.8794 7.86336 9.98283 7.88777 8.83883 9.03177C7.69484 10.1758 7.67042 12.0723 8.814 13.2159L13.4687 17.8706L8.814 22.5253C7.67042 23.6689 7.69484 25.5654 8.83883 26.7094C9.98283 27.8534 11.8794 27.8778 13.023 26.7343L17.6777 22.0796L22.3324 26.7343C23.4759 27.8778 25.3725 27.8534 26.5165 26.7094C27.6605 25.5654 27.6849 23.6689 26.5413 22.5253L21.8866 17.8706L26.5413 13.2159C27.6849 12.0723 27.6605 10.1758 26.5165 9.03177C25.3725 7.88777 23.4759 7.86336 22.3324 9.00694Z" fill="white"/>
</g>
<defs>
<clipPath id="clip0_505_178">
<rect width="25" height="25" fill="white" transform="translate(0 17.8706) rotate(-45)"/>
</clipPath>
</defs>
</svg>
