<svg width="11" height="11" viewBox="0 0 11 11" fill="none" xmlns="http://www.w3.org/2000/svg">
<path d="M5.23127 0.0052309C4.84 0.04844 4.46163 0.157599 4.1241 0.328161C3.50924 0.63972 2.92663 1.25829 2.64715 1.89733C2.07529 3.20497 2.32252 4.71955 3.26631 5.69062C3.51139 5.94305 3.56729 5.9908 3.78657 6.14317C4.69166 6.76629 5.85043 6.85271 6.82646 6.37059C7.49077 6.04311 8.05188 5.4541 8.35716 4.76731C8.76133 3.85537 8.75918 2.82518 8.35286 1.89733C8.07338 1.25829 7.49077 0.63972 6.87591 0.328161C6.63298 0.205357 6.3062 0.0939231 6.06971 0.050714C5.87408 0.0143275 5.39036 -0.0129623 5.23127 0.0052309Z" fill="white"/>
<path d="M2.73531 6.15321C1.3379 7.02648 0.398417 8.40235 0.0608906 10.067C-0.0036049 10.3831 -0.0186539 10.6538 0.0243432 10.7402C0.0716399 10.838 0.196331 10.9471 0.290925 10.9744C0.404867 11.0085 10.5952 11.0085 10.7091 10.9744C10.8037 10.9471 10.9284 10.838 10.9757 10.7402C11.0552 10.5764 10.9327 9.8669 10.7091 9.22104C10.6124 8.93677 10.378 8.43191 10.2211 8.16129C9.74167 7.34487 9.05157 6.6376 8.25827 6.15321L8.07554 6.04178L8.01964 6.08499C7.98739 6.10773 7.94224 6.15094 7.9186 6.17823C7.89495 6.20779 7.80035 6.28966 7.70791 6.36471C7.30374 6.69218 6.90817 6.89686 6.38145 7.0515C5.88269 7.19705 5.11734 7.19705 4.61858 7.0515C3.99297 6.86729 3.5028 6.58757 3.06423 6.16231C2.99544 6.09636 2.93309 6.04178 2.92449 6.04405C2.91589 6.04405 2.83205 6.09408 2.73531 6.15321Z" fill="white"/>
</svg>
