<svg width="60" height="60" viewBox="0 0 60 60" fill="none" xmlns="http://www.w3.org/2000/svg">
<g id="Group">
<path id="Vector" d="M12.6731 0.164131C12.4972 0.260071 12.2978 0.515919 12.2275 0.755772C12.1337 1.05959 11.5122 8.68699 11.5122 9.4865C11.5122 9.55046 9.06142 9.58244 6.07124 9.58244C0.747545 9.58244 0.630283 9.58244 0.325402 9.91824C-0.108467 10.382 -0.108467 11.3414 0.325402 11.8051C0.630283 12.1409 0.759271 12.1409 5.95397 12.1409C10.9493 12.1409 11.2777 12.1569 11.2777 12.4127C11.2894 12.8445 10.3396 26.4043 10.2692 26.804C10.2223 27.1718 10.1871 27.1718 8.51028 27.1718C6.85689 27.1718 6.79826 27.1878 6.52856 27.5716C6.14159 28.0833 6.14159 28.8188 6.52856 29.3305C6.79826 29.7143 6.86862 29.7303 8.46338 29.7303H10.105L10.0464 30.3219C9.96433 31.1214 8.58064 50.6137 8.58064 51.0134C8.58064 51.1893 8.70963 51.5091 8.8738 51.717C9.15523 52.1168 9.17868 52.1168 11.2659 52.1168C13.5877 52.1168 13.3884 52.0208 13.5643 53.2201C13.6815 53.9556 14.0568 55.091 14.4789 55.9544C15.7453 58.5609 17.7505 60 20.0723 60C21.7609 60 23.2853 59.2325 24.5048 57.7773C25.4546 56.642 26.3693 54.6432 26.5803 53.2201C26.7562 52.0048 25.9706 52.1168 33.7802 52.1168H40.7808L40.9098 52.9962C41.156 54.5793 41.7189 55.9225 42.6921 57.2497C44.0876 59.1525 45.5416 59.984 47.453 59.984C49.3643 59.984 50.8184 59.1525 52.2138 57.2497C53.1871 55.9225 53.7499 54.5793 53.9962 52.9962L54.1252 52.1168H56.2476C59.0619 52.1168 58.8274 52.4206 59.1792 48.359C59.8593 40.3958 59.9883 38.3491 60 35.2469C60 32.3687 59.9765 31.921 59.7303 30.7856C58.546 25.189 55.4385 21.0635 51.3578 19.6404C50.5487 19.3525 49.9272 19.2886 47.664 19.2246C45.7175 19.1607 44.9318 19.0967 44.9318 18.9528C44.9318 18.8568 45.1664 15.0831 45.4595 10.5579C46.0693 0.995628 46.081 0.787754 45.7409 0.372005C45.5064 0.0841789 45.1546 0.0681877 36.3834 0.0202179C30.3327 -0.0117645 27.1432 0.0202179 26.8618 0.132149C26.1934 0.403984 25.9706 1.36341 26.4162 2.13094L26.6507 2.54669H35.3867H44.111L44.0406 3.21828C44.0172 3.60205 43.5364 10.9896 42.997 19.6564C42.4459 28.3231 41.9768 35.7107 41.9417 36.0784L41.8713 36.766H26.6859H11.5122V36.3823C11.5122 35.9505 11.8288 31.4253 11.9226 30.4019L11.993 29.7303H15.0418H18.0906L18.372 29.3305C18.7238 28.8668 18.7473 28.1472 18.4424 27.6355C18.2196 27.2518 18.1961 27.2518 15.1825 27.1718L12.1571 27.0919L12.6848 19.6084L13.2008 12.1409H17.9968H22.7811L23.0625 11.7411C23.4495 11.2295 23.4495 10.4939 23.0625 9.9822L22.7811 9.58244H18.0789H13.3649L13.4353 8.97481C13.4705 8.655 13.5877 7.07196 13.6933 5.45693L13.8926 2.54669H18.97H24.0475L24.282 2.13094C24.7042 1.41138 24.5165 0.451958 23.9068 0.14814C23.4495 -0.0597343 13.107 -0.0437431 12.6731 0.164131ZM48.2152 21.847C48.2152 22.1828 47.8517 27.7954 47.793 28.2432L47.7344 28.7709H46.0458C44.5097 28.7709 44.3455 28.7389 44.3455 28.483C44.3455 28.3391 44.4276 26.7561 44.5449 24.9652L44.7442 21.7351H46.4797C47.4295 21.7351 48.2152 21.7831 48.2152 21.847ZM51.5454 22.4067C53.6913 23.3661 55.3447 25.1091 56.6463 27.7635C57.7134 29.9222 58.1824 32.1288 58.1824 34.9431C58.1824 36.6221 58.1824 36.6221 57.9245 36.5262C57.2561 36.2543 56.576 35.5028 55.1805 33.472C54.348 32.2727 53.3512 30.9775 52.9643 30.6097C52.1669 29.8422 50.9474 29.1386 50.1617 28.9947L49.6223 28.8828L49.681 28.3071C49.7396 27.7475 50.0914 22.3587 50.0914 22.0549C50.0914 21.863 50.6425 22.0069 51.5454 22.4067ZM49.7513 31.4892C51.1584 31.857 51.7448 32.4167 53.8437 35.3109C55.802 38.0453 56.2242 38.477 57.4202 38.9887L58.0183 39.2445L57.7486 42.6025C57.6079 44.4414 57.4202 46.744 57.3382 47.7194L57.1857 49.4784L55.6613 49.5263L54.1252 49.5743L53.9962 48.6788C53.7499 47.0958 53.1871 45.7526 52.2138 44.4254C50.8184 42.5226 49.3643 41.6911 47.453 41.6911C45.5416 41.6911 44.0876 42.5226 42.6921 44.4254C41.7189 45.7526 41.156 47.0958 40.9098 48.6788L40.7808 49.5583H33.7802C25.9589 49.5583 26.7562 49.6862 26.5686 48.439C26.5334 48.1352 26.3458 47.4476 26.1582 46.9199C25.009 43.6579 22.7107 41.6911 20.0723 41.6911C17.4339 41.6911 15.1356 43.6579 13.9864 46.9199C13.7988 47.4476 13.6112 48.1352 13.576 48.439C13.3884 49.6383 13.5174 49.5583 11.9695 49.5583C10.9259 49.5583 10.5741 49.5103 10.5741 49.3504C10.5741 49.2545 10.7383 46.9998 10.9259 44.3614C11.1135 41.723 11.2777 39.5164 11.2777 39.4364C11.2777 39.3725 18.4424 39.3245 27.2018 39.3245C42.9149 39.3245 43.1377 39.3245 43.3723 39.0047C43.5247 38.8288 43.6537 38.413 43.6889 38.0133C43.7709 37.2617 44.111 31.9369 44.111 31.5692C44.111 31.3613 44.5097 31.3293 46.6204 31.3293C47.9924 31.3293 49.3995 31.4093 49.7513 31.4892ZM21.3622 44.4734C23.4612 45.3369 24.8918 47.8793 24.9035 50.7896C24.9035 53.444 23.8247 55.7146 22.0189 56.8499C18.6417 58.9606 14.7721 54.995 15.2763 49.9581C15.6633 46.0884 18.6652 43.37 21.3622 44.4734ZM49.5637 44.9051C50.8301 45.7526 51.7799 47.3676 52.1552 49.3184C53.0112 53.6838 50.1148 58.0172 46.7729 57.3776C43.9937 56.8499 42.0355 52.9323 42.7508 49.3184C43.5599 45.177 46.808 43.0662 49.5637 44.9051Z" fill="#1D150B"/>
<path id="Vector_2" d="M19.1461 46.5358C17.3989 47.2553 16.4373 49.7498 16.9533 52.1963C17.3285 53.9553 18.6887 55.3145 20.0724 55.3145C21.8314 55.3145 23.3558 53.2357 23.3558 50.8372C23.3558 49.2381 22.6053 47.5751 21.5382 46.8556C20.9167 46.4238 19.7676 46.2799 19.1461 46.5358ZM20.6705 49.1582C21.0809 49.462 21.4796 50.2775 21.4796 50.8372C21.4796 51.7326 20.7174 52.756 20.049 52.756C19.4275 52.756 18.6653 51.7006 18.6653 50.8372C18.6653 49.9737 19.4275 48.9183 20.049 48.9183C20.2014 48.9183 20.4711 49.0302 20.6705 49.1582Z" fill="#1D150B"/>
<path id="Vector_3" d="M46.4797 46.584C44.9436 47.2716 44.1462 48.9506 44.2517 51.2532C44.2986 52.2126 44.369 52.5484 44.6856 53.204C45.9989 56.0024 48.907 56.0024 50.2321 53.1881C50.5956 52.4045 50.619 52.2766 50.619 50.9174C50.619 49.2864 50.4431 48.5988 49.763 47.6714C48.9656 46.584 47.5351 46.1203 46.4797 46.584ZM48.0276 49.1585C49.0126 49.7981 49.0477 51.7169 48.0979 52.5005C47.4881 52.9802 46.8549 52.7563 46.3155 51.8768C45.8582 51.1573 46.1631 49.6382 46.8549 49.1745C47.3123 48.8547 47.5585 48.8547 48.0276 49.1585Z" fill="#1D150B"/>
<path id="Vector_4" d="M3.5736 19.3678C3.23354 19.5917 3.04592 20.3432 3.19836 20.8869C3.42116 21.6864 3.5267 21.7184 6.212 21.7344H8.70968L8.9911 21.3346C9.17872 21.0948 9.28426 20.759 9.28426 20.4551C9.28426 20.1513 9.17872 19.8155 8.9911 19.5757C8.70968 19.1759 8.70968 19.1759 6.27063 19.1919C4.80485 19.1919 3.72604 19.2719 3.5736 19.3678Z" fill="#1D150B"/>
</g>
</svg>
