<svg width="22" height="20" viewBox="0 0 22 20" fill="none" xmlns="http://www.w3.org/2000/svg">
<path d="M0 0.806551V1.61295H1.67148C3.22695 1.61295 3.34727 1.61698 3.36875 1.68149C3.38164 1.72181 3.95313 4.41115 4.64063 7.65689C5.32813 10.9026 5.9168 13.6081 5.95117 13.6686C6.0543 13.8541 6.29063 14.0194 6.53125 14.0678C6.79336 14.1202 18.6484 14.1282 18.9363 14.0758C19.1555 14.0355 19.3746 13.9024 19.4992 13.7331C19.6281 13.5517 22 4.99982 22 4.71355C22 4.43937 21.8582 4.20552 21.6047 4.07246L21.4199 3.97166L13.518 3.9515L5.61602 3.93134L5.24648 2.19355C4.83398 0.262233 4.83398 0.258201 4.45586 0.0848255C4.27539 0.00418579 4.21523 0.000153801 2.13555 0.000153801H0V0.806551Z" fill="white"/>
<path d="M7.11133 15.0554C5.70625 15.378 4.83399 16.7005 5.13477 18.0391C5.23789 18.4987 5.46992 18.8858 5.86524 19.2527C6.26055 19.6236 6.58282 19.8011 7.07266 19.918C7.71289 20.0712 8.31016 20.0107 8.93321 19.7285C9.6336 19.414 10.1406 18.8334 10.334 18.1237C10.4156 17.8334 10.4242 17.1924 10.3555 16.9141C10.1363 16.0513 9.38008 15.3175 8.46485 15.0836C8.09532 14.9869 7.46367 14.9748 7.11133 15.0554Z" fill="white"/>
<path d="M16.3711 15.0912C15.6621 15.2887 15.052 15.7686 14.7469 16.3774C14.5407 16.7806 14.4719 17.0668 14.4762 17.5346C14.4805 18.2805 14.8414 18.9941 15.4344 19.4377C15.7266 19.6554 16.2766 19.8973 16.6032 19.9538C17.2047 20.0586 17.8793 19.9658 18.4035 19.7078C18.7989 19.5143 19.3188 19.0103 19.5207 18.6232C20.1953 17.337 19.6282 15.8129 18.2532 15.2242C17.8492 15.0509 17.5785 14.9984 17.0887 15.0025C16.8094 15.0025 16.5989 15.0307 16.3711 15.0912Z" fill="white"/>
</svg>
