<svg width="60" height="60" viewBox="0 0 60 60" fill="none" xmlns="http://www.w3.org/2000/svg">
<g id="Group">
<path id="Vector" d="M0.69625 0.11293C0.0497772 0.362467 -0.0165278 0.892733 0.0332009 4.9789C0.0829296 8.44122 0.116082 8.86231 0.381302 9.11185C0.646522 9.36139 1.0775 9.39258 5.0558 9.39258C9.03409 9.39258 9.46508 9.36139 9.7303 9.11185C9.99552 8.86231 10.0287 8.45682 10.0287 4.71376C10.0287 0.970713 9.99552 0.565215 9.7303 0.315679C9.46508 0.0661421 9.01752 0.0349503 5.25471 0.00375748C2.95062 -0.011838 0.911741 0.0349503 0.69625 0.11293ZM7.95664 4.71376V7.44307H5.0558H2.15496V4.71376V1.98446H5.0558H7.95664V4.71376Z" fill="#1D150B"/>
<path id="Vector_2" d="M16.1948 3.97785C15.8301 4.36775 15.8467 5.14756 16.2114 5.45948C16.4932 5.70901 18.2337 5.72461 37.8931 5.72461C56.9723 5.72461 59.3096 5.69342 59.6411 5.47507C60.1052 5.17875 60.1218 4.43014 59.6743 4.00904C59.3427 3.69712 59.1272 3.69712 37.9097 3.69712C17.3386 3.69712 16.4434 3.71272 16.1948 3.97785Z" fill="#1D150B"/>
<path id="Vector_3" d="M0.397712 14.8373C0.0993399 15.0556 0.0827637 15.2896 0.0827637 19.2198V23.3839L0.480593 23.6802C0.828694 23.961 1.17679 23.9766 5.05563 23.9766C8.93447 23.9766 9.28257 23.961 9.63067 23.6802L10.0285 23.3839V19.2198C10.0285 15.2896 10.0119 15.0556 9.71355 14.8373C9.23284 14.5098 0.878423 14.5098 0.397712 14.8373ZM7.95647 19.2977V21.9491H5.05563H2.15479V19.2977V16.6464H5.05563H7.95647V19.2977Z" fill="#1D150B"/>
<path id="Vector_4" d="M16.2777 18.4521C16.029 18.6081 15.913 18.842 15.913 19.2163C15.913 20.2769 15.4489 20.2301 25.4775 20.2301H34.5115L34.3789 20.5732C34.296 20.7759 34.2132 24.7685 34.1966 29.4785L34.1469 38.0096L33.4341 37.1986C32.1411 35.7014 30.4338 35.0463 28.6601 35.3582C27.5329 35.561 26.8367 35.8885 26.1074 36.5747C25.0465 37.5729 24.7813 38.2123 24.7813 39.8031C24.7813 41.0664 24.831 41.3159 25.3283 42.2829C26.0577 43.7333 26.8865 44.7939 29.6547 47.8351C32.5721 51.0323 33.5667 52.2332 34.6441 53.9019C35.4564 55.1964 36.3018 57.3019 36.3018 58.0661C36.3018 58.7211 36.7493 59.5009 37.2798 59.7505C37.7107 59.9688 38.9042 60 46.5624 60H55.3313L55.8451 59.5945C56.3922 59.1734 56.3922 59.1266 56.674 56.5533C56.9226 54.3854 57.221 53.3249 58.2984 50.7983C59.9229 47.0241 59.8897 47.2268 59.9726 40.2554C60.0223 34.2197 60.0223 34.1262 59.6577 33.3464C59.2433 32.4262 58.2487 31.5372 57.3536 31.2877C56.7403 31.1161 54.9003 31.1629 54.2538 31.3657C53.9554 31.4748 53.8891 31.4124 53.8063 31.0381C53.6405 30.3363 52.7454 29.4317 51.8171 29.0262C50.8225 28.5896 49.6125 28.5428 48.5682 28.8859C47.7062 29.1666 47.7394 29.1666 47.7394 28.8859C47.7394 28.7455 47.4078 28.34 47.01 27.9501C45.8828 26.8896 44.3744 26.5777 42.6505 27.03L42.2692 27.1235V24.4098C42.2692 22.5227 42.2029 21.4622 42.0371 20.9631L41.8051 20.2301H50.6236C58.978 20.2301 59.4753 20.2145 59.724 19.9493C60.1052 19.5594 60.0721 18.8888 59.6742 18.5145C59.3427 18.2026 59.1272 18.2026 37.9925 18.2026C18.9464 18.2026 16.6092 18.2338 16.2777 18.4521ZM39.2523 20.6356C40.0977 21.1658 40.1143 21.2906 40.1143 30.2271C40.1143 37.7288 40.1474 38.5554 40.3961 38.8206C40.7442 39.1949 41.5233 39.1793 41.9377 38.7894C42.2526 38.493 42.2692 38.2747 42.2692 34.2977C42.2692 30.4455 42.3024 30.1024 42.6007 29.6345C43.0483 28.9327 44.0429 28.6519 44.8385 29.0107C45.9657 29.5097 45.9823 29.6345 46.0817 34.4537C46.1646 39.1481 46.1646 39.1013 47.0763 39.1013C48.104 39.1013 48.2366 38.6334 48.2366 34.8592V31.74L48.8002 31.2097C49.2644 30.773 49.4964 30.6794 50.06 30.6794C50.6236 30.6794 50.8557 30.773 51.3198 31.2097L51.8834 31.74V35.1555C51.8834 39.0857 51.9331 39.2573 53.0438 39.2573C53.5245 39.2573 53.74 39.1793 53.8726 38.9609C53.9554 38.7894 54.0383 37.7756 54.0383 36.6839C54.0383 35.3894 54.1212 34.5472 54.2704 34.2197C54.7511 33.1124 56.2595 32.8161 57.221 33.6271L57.768 34.0794V40.1462V46.1975L57.1712 47.7571C56.8397 48.6149 56.2595 50.0809 55.8617 51.0323C55.1158 52.857 54.6351 54.7909 54.4527 56.756L54.3367 57.9725H46.4298H38.523L38.3406 57.0523C37.777 54.2607 36.1526 51.7653 31.5278 46.6966C27.0357 41.7526 26.2731 40.3334 27.1848 38.649C27.8313 37.4481 29.4724 36.9802 30.6824 37.6353C30.9974 37.8068 31.7101 38.5398 32.2903 39.2573C34.2795 41.7526 34.4286 41.9086 35.0585 41.9086C35.4232 41.9086 35.7382 41.7838 35.9702 41.5655C36.3018 41.238 36.3018 41.0664 36.3018 31.4748C36.3018 23.9731 36.3515 21.6181 36.5173 21.3218C36.6333 21.1191 36.9814 20.7759 37.2963 20.5732C37.9262 20.1677 38.5396 20.1989 39.2523 20.6356Z" fill="#1D150B"/>
<path id="Vector_5" d="M0.563592 29.2457C0.0663049 29.5576 0 30.1034 0 33.7997C0 37.496 0.0663049 38.0418 0.563592 38.3537C0.663049 38.4161 2.68535 38.4785 5.05575 38.4785C7.42615 38.4785 9.44845 38.4161 9.54791 38.3537C10.0452 38.0418 10.1115 37.496 10.1115 33.7997C10.1115 30.1034 10.0452 29.5576 9.54791 29.2457C9.44845 29.1833 7.42615 29.1209 5.05575 29.1209C2.68535 29.1209 0.663049 29.1833 0.563592 29.2457ZM7.95659 33.7997V36.451H5.05575H2.15491V33.7997V31.1484H5.05575H7.95659V33.7997Z" fill="#1D150B"/>
<path id="Vector_6" d="M16.1122 33.0484C15.847 33.2979 15.8636 34.3429 16.1453 34.5612C16.2945 34.686 17.3886 34.7328 19.7424 34.7016L23.1074 34.6548L23.3726 34.2181C23.5881 33.8438 23.5881 33.7502 23.3726 33.3603L23.1074 32.9392L19.7092 32.8924C17.2062 32.8612 16.2614 32.908 16.1122 33.0484Z" fill="#1D150B"/>
<path id="Vector_7" d="M0.480593 43.9212L0.0827637 44.2175V48.3816C0.0827637 52.3118 0.0993399 52.5458 0.397712 52.7641C0.878423 53.0916 9.23284 53.0916 9.71355 52.7641C10.0119 52.5458 10.0285 52.3118 10.0285 48.3816V44.2175L9.63067 43.9212C9.28257 43.6404 8.93447 43.6248 5.05563 43.6248C1.17679 43.6248 0.828694 43.6404 0.480593 43.9212ZM7.95647 48.3037V50.955H5.05563H2.15479V48.3037V45.6523H5.05563H7.95647V48.3037Z" fill="#1D150B"/>
<path id="Vector_8" d="M16.1785 47.6166C16.0294 47.7414 15.9133 48.1001 15.9133 48.3808C15.9133 49.3477 16.1454 49.3945 20.4718 49.3945C24.7982 49.3945 25.0303 49.3477 25.0303 48.3808C25.0303 47.3826 24.964 47.367 20.4718 47.367C17.0239 47.367 16.394 47.3982 16.1785 47.6166Z" fill="#1D150B"/>
</g>
</svg>
