<svg width="15" height="15" viewBox="0 0 15 15" fill="none" xmlns="http://www.w3.org/2000/svg">
<g id="Group">
<path id="Vector" d="M6.95633 0.02176C5.11485 0.172577 3.48383 0.923155 2.20357 2.20685C0.909274 3.49757 0.169176 5.11797 0.0218583 6.96636C-0.164043 9.3163 0.846138 11.7083 2.65955 13.227C5.48315 15.591 9.51685 15.591 12.3404 13.227C14.1539 11.7083 15.164 9.3163 14.9781 6.96636C14.7642 4.26217 13.2173 1.96835 10.7971 0.772338C9.6326 0.197129 8.20502 -0.0834613 6.95633 0.02176ZM8.29622 1.59306C9.21871 1.72284 10.0675 2.04902 10.8427 2.57162C12.4632 3.66241 13.4629 5.54237 13.4629 7.50299C13.4629 9.46361 12.4632 11.3436 10.8427 12.4344C8.08226 14.2933 4.3958 13.5672 2.53679 10.7999C0.569039 7.86425 1.60728 3.85883 4.7676 2.21036C5.83741 1.65269 7.12469 1.42471 8.29622 1.59306Z" fill="#C49B63"/>
<path id="Vector_2" d="M7.21937 3.78942C7.06153 3.85255 6.90369 3.99986 6.82302 4.14717C6.74585 4.29448 6.74585 4.30149 6.74585 6.01309V7.73171L6.84406 7.89655C6.9072 8.00528 6.99839 8.09647 7.10713 8.15961L7.27199 8.25781H8.6224H9.97282L10.1377 8.15961C10.3797 8.01931 10.499 7.80185 10.499 7.50373C10.499 7.2056 10.3797 6.98814 10.1377 6.84785L9.97282 6.74964L9.12398 6.73912L8.27515 6.7286L8.26463 5.51154L8.25411 4.29448L8.16642 4.13665C8.11731 4.05247 8.01208 3.93322 7.9279 3.8771C7.80163 3.78942 7.73849 3.76837 7.54207 3.76136C7.41229 3.75434 7.26848 3.76837 7.21937 3.78942Z" fill="#C49B63"/>
</g>
</svg>
