<svg width="40" height="40" viewBox="0 0 40 40" fill="none" xmlns="http://www.w3.org/2000/svg">
<path d="M5.23238 0.441143C4.1671 2.40085 3.27937 4.26723 3.31071 4.47084C3.34204 4.70838 3.34204 4.70838 4.20888 4.73383C4.67885 4.75079 5.06527 4.77624 5.06527 4.79321C5.06527 4.81018 4.7624 5.6755 4.39687 6.71898C2.49608 12.0891 1.15927 17.6967 0.480418 23.2025C0.0313316 26.8165 0 27.5292 0 33.8494V40H20H40V33.7222C39.9896 28.5387 39.9582 27.1135 39.812 25.5355C38.9974 17.0604 37.1071 9.26405 34.0679 1.86638L33.3159 0.0424157L19.3943 0.016965L5.47258 -2.13739e-06L5.23238 0.441143ZM6.73629 0.738068C6.73629 0.780486 6.42298 1.54401 6.047 2.43478L5.34726 4.07211H4.88773C4.55352 4.07211 4.4282 4.03817 4.46997 3.96182C4.49086 3.91092 4.87728 3.1474 5.32637 2.26511C6.10966 0.729584 6.15144 0.678683 6.43342 0.678683C6.60052 0.678683 6.73629 0.704134 6.73629 0.738068ZM8.64752 2.30753C9.73368 4.8526 10.5483 7.06681 11.436 9.84942L11.9373 11.4358L10.9974 12.1824C6.22454 16.017 3.22715 20.9883 2.41253 26.4263C2.27676 27.3171 1.6188 37.7773 1.6188 39.0329C1.6188 39.3637 1.6188 39.3637 1.20104 39.3637H0.78329V36.5387C0.793734 32.6957 0.950392 27.7922 1.14883 25.79C1.93211 17.5779 3.85379 9.98515 7.0705 2.43478C7.47781 1.46765 7.84334 0.678683 7.88512 0.678683C7.92689 0.678683 8.27154 1.41675 8.64752 2.30753ZM19.2272 4.04666L20.8877 7.42312H24.5953H28.3029L28.3342 7.18558C28.3551 7.02439 27.8538 5.88759 26.8512 3.85154C26.0157 2.15482 25.3264 0.746551 25.3264 0.721101C25.3264 0.69565 26.9661 0.678683 28.9608 0.678683H32.5953L33.3473 2.56203C36.3342 10.1039 38.141 17.6204 38.8512 25.5355C39.0496 27.7328 39.2063 32.4836 39.2167 36.4539V39.3637H27.53H15.8433L15.7911 33.3574C15.7598 28.8696 15.7076 26.9438 15.5718 25.7052C14.7363 17.4252 12.9504 10.2566 9.85901 2.78261C9.40992 1.67974 9.03394 0.755035 9.03394 0.729584C9.03394 0.704134 10.9556 0.678683 13.295 0.678683H17.5561L19.2272 4.04666ZM21.0757 3.58006C21.859 5.18346 22.5274 6.55779 22.5692 6.63414C22.6214 6.76988 22.5692 6.78685 22.1201 6.78685H21.6084L20.1775 3.87699C19.3943 2.28208 18.7258 0.907739 18.6841 0.822904C18.6319 0.69565 18.6841 0.678683 19.1332 0.678683H19.6449L21.0757 3.58006ZM23.5822 3.58006C24.3655 5.18346 25.0339 6.55779 25.0757 6.63414C25.1279 6.76988 25.0653 6.78685 24.4178 6.78685H23.6971L22.2663 3.87699C21.483 2.28208 20.8146 0.907739 20.7728 0.822904C20.7206 0.69565 20.7833 0.678683 21.4308 0.678683H22.1514L23.5822 3.58006ZM25.671 3.58006C26.4543 5.18346 27.1227 6.55779 27.1645 6.63414C27.2167 6.76988 27.1645 6.78685 26.7154 6.78685H26.2037L24.7728 3.87699C23.9896 2.28208 23.3211 0.907739 23.2794 0.822904C23.2272 0.69565 23.2794 0.678683 23.7285 0.678683H24.2402L25.671 3.58006ZM12.7311 14.5069C14.4334 21.6161 14.9765 26.8929 14.9869 36.5387V39.3637H8.77285H2.55875V39.0329C2.55875 37.7943 3.21671 27.334 3.34204 26.5111C4.13577 21.4634 6.78851 16.9332 11.1227 13.2089C11.6554 12.7508 12.1253 12.4115 12.1671 12.4454C12.2089 12.4793 12.4595 13.4125 12.7311 14.5069Z" fill="#C49B63"/>
<path d="M30.0784 13.7779C29.316 13.9731 28.752 14.2615 28.094 14.7875C27.739 15.0759 27.3734 15.4068 27.2794 15.5171L27.1228 15.7122L26.7677 15.5001C25.9635 15.0081 24.6998 14.6178 23.6658 14.5415C20.1254 14.27 17.7755 17.0611 18.799 20.2848C19.4465 22.3039 21.4204 24.0939 23.6658 24.6963C24.7311 24.9762 26.2664 24.9762 27.1019 24.6963C28.3134 24.2891 29.2742 23.4746 29.7233 22.4736L29.9426 21.99L30.5901 21.8967C31.9374 21.7016 33.1071 21.0399 33.9844 19.9709C35.2168 18.4778 35.4048 16.5181 34.4544 15.1014C34.0784 14.533 33.3995 14.0494 32.6789 13.8288C32.0209 13.6337 30.7468 13.6083 30.0784 13.7779ZM32.0001 14.4736C32.2403 14.533 32.0732 15.5425 31.7181 16.1618C31.3734 16.7472 31.0392 16.9847 30.3395 17.1374C30.0784 17.1883 29.7024 17.3241 29.4935 17.4344L29.1175 17.638L28.6267 17.0526C28.3551 16.7302 28.0732 16.4248 27.9896 16.3739C27.8643 16.2891 27.8852 16.2212 28.1358 15.9158C29.0862 14.796 30.7781 14.1682 32.0001 14.4736ZM33.8068 15.7801C34.1202 16.3145 34.1933 17.5192 33.9426 18.2064C33.4204 19.6995 31.9583 20.9041 30.3917 21.1586L30.0784 21.2095L30.0575 20.4969C30.047 19.8776 29.9531 19.4619 29.6502 18.6051C29.5666 18.3506 30.0157 18.0197 30.6528 17.867C31.3212 17.7058 31.6972 17.5362 32.0314 17.2477C32.4282 16.9169 32.846 16.1279 32.9818 15.4662L33.0967 14.9147L33.3369 15.1608C33.4726 15.288 33.6815 15.568 33.8068 15.7801ZM24.752 15.534C27.0079 16.2042 28.6998 17.9773 29.0967 20.0727C29.3473 21.4131 28.8356 22.6687 27.7076 23.4916L27.4256 23.6867L26.8199 23.305C25.034 22.1851 24.5849 21.1926 25.128 19.4874C25.6502 17.8416 24.9087 16.3739 23.175 15.6358C22.8721 15.5086 22.6528 15.3728 22.6841 15.3219C22.7781 15.2032 24.0732 15.3304 24.752 15.534ZM22.2873 16.1533C23.3839 16.603 23.9896 17.112 24.2298 17.7567C24.4387 18.3166 24.4282 18.5627 24.1776 19.411C23.645 21.218 24.1672 22.6178 25.7651 23.6358C26.3813 24.0261 26.4021 24.0515 26.1515 24.1024C25.7128 24.2042 24.9713 24.1788 24.3343 24.0515C23.3421 23.8394 22.5275 23.4322 21.6084 22.6942C19.5823 21.0568 18.9243 18.6984 20.0209 16.9423C20.3029 16.4842 21.0549 15.7801 21.2638 15.7801C21.316 15.7801 21.7755 15.9497 22.2873 16.1533Z" fill="#C49B63"/>
<path d="M17.5457 26.231C17.5144 26.2903 17.504 28.8015 17.5144 31.8131L17.5457 37.285H18.3708H19.1854L19.3108 36.9881C19.4048 36.7421 19.4779 36.6912 19.7285 36.6912C19.9165 36.6912 20.0627 36.7506 20.1149 36.8354C20.1672 36.9202 20.2507 37.056 20.3029 37.1323C20.376 37.2596 20.5536 37.2935 21.3369 37.3105L22.2873 37.3359L22.3604 37.0984C22.4544 36.7675 22.6006 36.6488 22.8721 36.6488C23.1541 36.6488 23.3108 36.7845 23.363 37.0729C23.3943 37.285 23.4048 37.285 24.376 37.285C25.2011 37.285 25.3682 37.2596 25.4413 37.1323C25.4935 37.056 25.5771 36.9202 25.6293 36.8354C25.6815 36.7506 25.8277 36.6912 26.0053 36.6912C26.2455 36.6912 26.3186 36.7421 26.423 36.9881L26.5484 37.285H27.5196H28.4909L28.6162 36.9881C28.7207 36.7421 28.7938 36.6912 29.034 36.6912C29.2115 36.6912 29.3578 36.7506 29.41 36.8439C29.4622 36.9202 29.5457 37.056 29.598 37.1408C29.6711 37.2596 29.8486 37.2935 30.6319 37.3105L31.5823 37.3359L31.6554 37.0984C31.7494 36.7675 31.8956 36.6488 32.1672 36.6488C32.4387 36.6488 32.5849 36.7675 32.6789 37.0984L32.752 37.3359L33.7024 37.3105C34.4857 37.2935 34.6632 37.2596 34.7363 37.1323C34.7886 37.056 34.8721 36.9202 34.9243 36.8354C34.9766 36.7506 35.1228 36.6912 35.3108 36.6912C35.5614 36.6912 35.6345 36.7421 35.7285 36.9881L35.8538 37.285H36.6685H37.4935V31.7283V26.1716H36.6685H35.8538L35.7285 26.4685C35.6345 26.7145 35.5614 26.7654 35.3108 26.7654C35.1228 26.7654 34.9766 26.706 34.9243 26.6127C34.8721 26.5364 34.7886 26.4006 34.7363 26.3158C34.6632 26.197 34.4857 26.1631 33.7024 26.1461L32.752 26.1207L32.6789 26.3582C32.5849 26.6891 32.4387 26.8078 32.1672 26.8078C31.8956 26.8078 31.7494 26.6891 31.6554 26.3582L31.5823 26.1207L30.6319 26.1461C29.6293 26.1716 29.6711 26.1546 29.3995 26.6382C29.3578 26.706 29.1907 26.7654 29.034 26.7654C28.7938 26.7654 28.7207 26.7145 28.6162 26.4685L28.4909 26.1716H27.5196H26.5484L26.423 26.4685C26.3186 26.7145 26.2455 26.7654 26.0053 26.7654C25.8277 26.7654 25.6815 26.706 25.6293 26.6127C25.5771 26.5364 25.4935 26.4006 25.4413 26.3158C25.3682 26.197 25.1907 26.1631 24.4074 26.1461L23.457 26.1207L23.3839 26.3582C23.2899 26.6891 23.1437 26.8078 22.8721 26.8078C22.6006 26.8078 22.4544 26.6891 22.3604 26.3582L22.2873 26.1207L21.3369 26.1461C20.5536 26.1631 20.376 26.197 20.3029 26.3158C20.2507 26.4006 20.1672 26.5364 20.1149 26.6127C20.0627 26.706 19.9165 26.7654 19.7285 26.7654C19.4779 26.7654 19.4048 26.7145 19.3108 26.4685L19.1854 26.1716L18.3917 26.1461C17.8173 26.1292 17.5771 26.1546 17.5457 26.231ZM18.5901 27.0623C18.799 27.3932 19.2481 27.5714 19.8538 27.5714C20.3029 27.5714 20.3865 27.5374 20.8042 27.1896C21.0444 26.9775 21.3055 26.8078 21.3786 26.8078C21.4518 26.8163 21.6084 26.9351 21.7233 27.0878C21.9844 27.4187 22.329 27.5714 22.8721 27.5714C23.4152 27.5714 23.7598 27.4187 24.0209 27.0878C24.1358 26.9351 24.2925 26.8163 24.3656 26.8078C24.4387 26.8078 24.6998 26.9775 24.94 27.1896C25.3578 27.5374 25.4413 27.5714 25.8904 27.5714C26.4961 27.5714 26.9452 27.3932 27.1541 27.0623C27.363 26.7315 27.6763 26.7315 27.8852 27.0623C28.094 27.3932 28.5431 27.5714 29.1489 27.5714C29.598 27.5714 29.6815 27.5374 30.0993 27.1896C30.611 26.7569 30.7781 26.723 30.9452 27.0114C31.0079 27.1302 31.2063 27.3084 31.3734 27.4102L31.6972 27.6053V29.2426V30.8799H25.0131H18.329V28.8439C18.329 27.7241 18.3499 26.8078 18.3813 26.8078C18.4021 26.8078 18.4961 26.9181 18.5901 27.0623ZM34.235 27.1896C34.6528 27.5374 34.7363 27.5714 35.1854 27.5714C35.8016 27.5714 36.2403 27.3932 36.47 27.0369C36.658 26.7739 36.658 26.8248 36.6893 29.2426C36.6998 30.6085 36.6998 32.8481 36.6893 34.2055C36.658 36.6318 36.658 36.6827 36.47 36.4197C36.2403 36.0634 35.8016 35.8852 35.1854 35.8852C34.7363 35.8852 34.6528 35.9192 34.235 36.267C33.9948 36.4791 33.7337 36.6488 33.6606 36.6488C33.5875 36.6403 33.4309 36.5215 33.316 36.3688C33.2011 36.2246 32.9713 36.0464 32.8147 35.9871L32.5327 35.8768V31.7283V27.5798L32.8147 27.4696C32.9713 27.4102 33.2011 27.232 33.316 27.0878C33.4309 26.9351 33.5875 26.8163 33.6606 26.8078C33.7337 26.8078 33.9948 26.9775 34.235 27.1896ZM31.6972 33.705V35.8513L31.3734 36.0464C31.2063 36.1482 31.0079 36.3264 30.9452 36.4452C30.7781 36.7336 30.611 36.6997 30.0993 36.267C29.6815 35.9192 29.598 35.8852 29.1489 35.8852C28.5431 35.8852 28.094 36.0634 27.8852 36.3943C27.7912 36.547 27.645 36.6488 27.5196 36.6488C27.3943 36.6488 27.2481 36.547 27.1541 36.3943C26.7155 35.7071 25.2638 35.7156 24.7625 36.4027C24.5327 36.7166 24.282 36.7082 24.0209 36.3688C23.7598 36.038 23.4152 35.8852 22.8721 35.8852C22.329 35.8852 21.9844 36.038 21.7233 36.3688C21.6084 36.5215 21.4518 36.6403 21.3786 36.6488C21.3055 36.6488 21.0444 36.4791 20.8042 36.267C20.3865 35.9192 20.3029 35.8852 19.8538 35.8852C19.2481 35.8852 18.8408 36.0464 18.5484 36.4112L18.329 36.6912V34.1207V31.5586H25.0131H31.6972V33.705Z" fill="#C49B63"/>
<path d="M19.2063 28.2833C19.175 28.3512 19.1645 28.4954 19.1854 28.6057L19.2168 28.8008H22.0888H24.9609V28.5039V28.2069L22.1097 28.1815C19.7076 28.1645 19.2585 28.1815 19.2063 28.2833Z" fill="#C49B63"/>
<path d="M19.2063 29.6407C19.175 29.7086 19.1645 29.8528 19.1854 29.9631L19.2168 30.1582H23.3421H27.4674V29.8613V29.5644L23.363 29.5389C19.8747 29.5219 19.2585 29.5389 19.2063 29.6407Z" fill="#C49B63"/>
<path d="M28.3967 29.6407C28.3654 29.7086 28.355 29.8528 28.3759 29.9631C28.4072 30.1582 28.4281 30.1582 29.6082 30.1582H30.8093V29.8613V29.5644L29.6291 29.5389C28.6787 29.5219 28.449 29.5389 28.3967 29.6407Z" fill="#C49B63"/>
<path d="M33.4099 28.2833C33.3786 28.3512 33.3682 28.4954 33.389 28.6057C33.4204 28.8008 33.4413 28.8008 34.6214 28.8008H35.8225V28.5039V28.2069L34.6423 28.1815C33.6919 28.1645 33.4621 28.1815 33.4099 28.2833Z" fill="#C49B63"/>
<path d="M33.4099 29.6407C33.3786 29.7086 33.3682 29.8528 33.389 29.9631C33.4204 30.1582 33.4413 30.1582 34.6214 30.1582H35.8225V29.8613V29.5644L34.6423 29.5389C33.6919 29.5219 33.4621 29.5389 33.4099 29.6407Z" fill="#C49B63"/>
<path d="M20.0836 32.4827C18.7677 33.1614 18.8617 34.909 20.2298 35.452C21.2429 35.8422 22.4857 35.5962 23.0392 34.8836C23.2899 34.5612 23.3421 34.4085 23.3421 33.9419C23.3421 32.8899 22.5379 32.2367 21.2429 32.2367C20.6685 32.2367 20.4805 32.2791 20.0836 32.4827ZM22.0471 33.2887C22.3395 33.5262 22.4022 33.645 22.4022 33.9334C22.4022 34.2219 22.3395 34.3406 22.0471 34.5782C21.7546 34.8157 21.6084 34.8666 21.2533 34.8666C20.8982 34.8666 20.752 34.8157 20.4596 34.5782C20.1672 34.3406 20.1045 34.2219 20.1045 33.9334C20.1045 33.645 20.1672 33.5262 20.4596 33.2887C20.752 33.0511 20.8982 33.0002 21.2533 33.0002C21.6084 33.0002 21.7546 33.0511 22.0471 33.2887Z" fill="#C49B63"/>
<path d="M24.2193 33.0352C24.1879 33.1031 24.1775 33.2473 24.1984 33.3576C24.2297 33.5527 24.2297 33.5527 25.8485 33.5527H27.4673V33.2558V32.9589L25.8694 32.9334C24.5535 32.9165 24.2715 32.9334 24.2193 33.0352Z" fill="#C49B63"/>
<path d="M24.2193 34.3927C24.1879 34.4605 24.1775 34.6047 24.1984 34.715L24.2297 34.9102H27.1018H29.9738V34.6132V34.3163L27.1226 34.2909C24.7206 34.2739 24.2715 34.2909 24.2193 34.3927Z" fill="#C49B63"/>
<path d="M5.83815 35.4102C5.80682 35.4781 5.79638 35.6223 5.81726 35.7326L5.8486 35.9277H8.72066H11.5927V35.6308V35.3339L8.74155 35.3084C6.33946 35.2915 5.89037 35.3084 5.83815 35.4102Z" fill="#C49B63"/>
<path d="M4.16701 36.7677C4.13568 36.8355 4.12523 36.9797 4.14612 37.09L4.17745 37.2852H8.72053H13.2636V36.9882V36.6913L8.74142 36.6659C4.88764 36.6489 4.21923 36.6659 4.16701 36.7677Z" fill="#C49B63"/>
</svg>
