<svg width="60" height="60" viewBox="0 0 60 60" fill="none" xmlns="http://www.w3.org/2000/svg">
<g id="Group">
<path id="Vector" d="M8.24549 0.186867C5.37391 0.855629 3.5572 2.47474 1.98662 5.77163C-0.486455 10.9575 -0.650546 16.6713 1.49435 22.0566C3.34623 26.7028 6.89761 30.5159 11.5507 32.8624C13.6136 33.8949 15.7585 34.2351 17.7159 33.8245C19.6381 33.4256 21.654 32.1819 22.7792 30.6801C23.9161 29.1666 25.2288 26.0457 25.7914 23.488C26.1431 21.8806 26.1782 17.6216 25.85 15.9791C24.7014 10.3004 21.443 5.47831 16.6258 2.36915C15.2897 1.51266 13.4964 0.597511 12.5822 0.315926C11.3984 -0.0477867 9.48789 -0.106449 8.24549 0.186867ZM12.2188 2.39261C13.344 2.74459 15.5944 4.09385 16.9774 5.23192C19.8373 7.57846 21.9119 10.582 23.0019 13.9376C24.2326 17.7272 24.2209 21.6577 22.9667 25.3066C21.947 28.2867 20.5405 30.3164 18.9348 31.1377C18.3722 31.4193 18.3253 31.4193 17.9503 31.2433C16.7079 30.6449 14.9498 28.885 14.1996 27.4654C13.9301 26.9609 13.5667 26.0575 13.4026 25.4826C12.7111 23.1712 13.133 20.2732 14.4809 18.0792C15.5944 16.2372 16.1922 13.3509 15.9226 10.9927C15.571 7.82485 14.1996 5.0794 11.8789 2.92058C10.8827 1.9937 10.8944 1.98197 12.2188 2.39261ZM8.52679 2.97925C13.3557 5.83029 15.2897 11.9548 12.84 16.683C11.961 18.3843 11.6679 19.0765 11.3749 20.1324C11.0936 21.1649 11.0585 21.4348 11.0702 23.2533C11.0819 24.9076 11.1171 25.4004 11.328 26.1513C11.832 27.9933 12.7345 29.6007 14.0824 31.0204C14.856 31.8299 14.8677 31.8534 14.4926 31.7595C12.5236 31.2785 9.3238 29.1783 7.27267 27.0195C5.26843 24.9076 3.66269 22.1622 2.88912 19.5575C1.62328 15.2634 1.95146 10.6524 3.77989 6.88623C4.44798 5.52524 5.12778 4.44583 5.70209 3.8592C6.21781 3.3195 7.37816 2.54514 7.65946 2.54514C7.72978 2.54514 8.11657 2.74459 8.52679 2.97925Z" fill="#1D150B"/>
<path id="Vector_2" d="M49.3853 10.9921C41.8841 11.5905 35.4494 15.9785 32.0621 22.7835C30.7025 25.5406 29.9172 29.1191 30.011 32.111C30.0578 33.3664 30.1165 33.7301 30.4212 34.5866C31.2416 36.9448 33.0232 38.7399 35.4025 39.5964C36.1878 39.878 36.4339 39.9132 38.5085 39.9484C40.208 39.9836 41.0753 39.9484 42.0247 39.7959C46.7247 39.0684 50.7215 37.0387 53.9916 33.7301C56.4998 31.1723 58.2111 28.2392 59.2425 24.7194C59.9926 22.1264 60.227 18.5832 59.7582 16.8702C58.9612 13.9957 56.828 11.9307 53.8392 11.1094C53.2063 10.9334 50.8153 10.8748 49.3853 10.9921ZM53.5579 13.2683C54.2377 13.4794 55.0113 13.8666 55.527 14.2538C55.9138 14.5354 55.9138 14.5588 55.8552 15.2041C55.5973 17.5155 54.2143 20.0615 52.4679 21.399C51.0497 22.5019 49.4322 23.2645 47.7679 23.6165C47.3108 23.7103 46.1035 23.8394 45.1073 23.8981C42.4818 24.0506 40.9113 24.4143 39.1883 25.2708C36.1292 26.8078 33.7382 29.4946 32.6833 32.6037C32.4606 33.2725 32.3317 33.5071 32.2613 33.3898C32.0973 33.1082 32.0621 31.1137 32.2027 29.9052C33.4217 19.9207 41.8606 12.6699 51.8467 13.0571C52.4913 13.0805 53.2649 13.1744 53.5579 13.2683ZM57.836 17.9965C57.9649 18.8647 57.8008 21.5163 57.543 22.7365C55.949 30.2103 50.2878 35.9006 42.8217 37.508C41.9427 37.7074 41.0871 37.7778 39.4227 37.8248C37.3833 37.8834 37.1255 37.86 36.3519 37.6371C35.8948 37.4963 35.1915 37.1677 34.793 36.8979L34.0663 36.4169L34.1367 35.7246C34.5586 32.0758 36.7973 28.8962 40.126 27.2419C41.7669 26.4206 42.9389 26.1507 45.3182 26.01C46.3262 25.9513 47.4749 25.8457 47.8617 25.7753C50.323 25.3295 52.6789 24.1797 54.4253 22.584C55.6911 21.4342 56.9921 19.4162 57.4258 17.9379C57.5078 17.668 57.6133 17.4451 57.6602 17.4451C57.7071 17.4451 57.7891 17.6915 57.836 17.9965Z" fill="#1D150B"/>
<path id="Vector_3" d="M16.3328 35.9481C12.125 36.2297 7.94074 37.8253 4.61205 40.4183C1.28336 43.0229 -0.158287 45.5454 0.0175243 48.4786C0.134732 50.4614 0.884859 52.1275 2.37339 53.6879C7.80009 59.3548 17.3173 61.5136 25.3578 58.8973C28.2528 57.9586 31.4408 56.0579 33.5037 54.0399C35.7892 51.799 36.5862 48.9245 35.7072 46.0969C35.2032 44.4543 34.5703 43.5392 32.7887 41.8966C29.7062 39.0573 26.0024 37.1331 22.0642 36.347C20.9508 36.1124 18.0557 35.8425 17.2704 35.8894C17.0829 35.9012 16.661 35.9246 16.3328 35.9481ZM19.8725 38.2125C23.0488 38.6349 26.061 39.7495 28.5692 41.4273C30.1281 42.4715 32.3199 44.3839 32.8356 45.1583C33.3161 45.8974 33.6678 46.7304 33.785 47.4227C33.867 47.8685 33.8436 47.9155 33.363 48.3144C30.5618 50.6492 27.4441 51.4587 24.5607 50.6022C22.6268 50.0273 21.4782 49.2999 19.1458 47.188C16.743 45.0057 15.067 43.9733 12.9221 43.3514C11.6211 42.976 8.69087 42.976 7.34299 43.3514C6.17091 43.6682 4.94023 44.1845 3.81504 44.8298C3.32277 45.1113 2.91255 45.3108 2.91255 45.2521C2.91255 45.0644 3.54547 44.2314 4.17839 43.5744C6.92104 40.735 10.9881 38.764 15.2193 38.2242C16.3328 38.0835 18.8176 38.0717 19.8725 38.2125ZM12.1719 45.3225C13.1565 45.5572 14.8443 46.3902 15.7468 47.0707C16.1335 47.364 16.9423 48.0562 17.5517 48.6194C19.6498 50.5788 21.4079 51.7168 23.3066 52.3856C26.143 53.3829 29.2842 53.16 31.9448 51.7755C32.484 51.4939 32.9176 51.3179 32.9176 51.3766C32.9176 51.5643 31.7338 52.7493 30.8079 53.5002C24.7952 58.3575 16.2625 59.2844 9.12454 55.8585C5.26841 54.0047 2.65469 51.5174 2.2093 49.2647C2.10382 48.7133 2.10382 48.7133 2.59609 48.2674C3.83848 47.1646 6.12403 45.8622 7.60084 45.4399C9.13626 44.994 10.6365 44.9588 12.1719 45.3225Z" fill="#1D150B"/>
</g>
</svg>
