<svg width="15" height="15" viewBox="0 0 15 15" fill="none" xmlns="http://www.w3.org/2000/svg">
<g id="comment">
<path id="Vector" d="M0.65332 0.0209599C0.389648 0.0818758 0.169922 0.281545 0.0615234 0.562435C0.00292969 0.714725 0 0.75872 0 5.84181V10.9689L0.0703125 11.1381C0.105469 11.2295 0.193359 11.3649 0.263672 11.4359C0.509766 11.6965 0.313477 11.6796 3.09082 11.6897L5.58105 11.6999L6.43066 13.3108C7.33301 15.0198 7.3418 15.0333 7.53809 14.9894C7.58203 14.9792 7.64648 14.9318 7.68457 14.8811C7.71973 14.8303 8.11816 14.0959 8.56934 13.2431L9.38965 11.6999L11.8945 11.6897C14.6895 11.6796 14.4902 11.6965 14.7363 11.4359C14.8066 11.3649 14.8945 11.2295 14.9297 11.1381L15 10.9689V5.84181V0.714725L14.9297 0.545514C14.8447 0.335692 14.707 0.183403 14.5166 0.0818758L14.3701 0.00403881L7.57324 0.000655174C3.83496 -0.00272942 0.720703 0.0074234 0.65332 0.0209599ZM14.3877 0.728262L14.4727 0.826404V5.83505C14.4727 10.8268 14.4727 10.8403 14.4141 10.9283C14.3789 10.9791 14.3027 11.0332 14.2441 11.0535C14.1738 11.0738 13.2568 11.0874 11.6279 11.0874H9.12012L9.05859 11.1618C9.01465 11.2193 7.64355 13.771 7.50293 14.0553C7.49414 14.079 7.17188 13.5037 6.73828 12.6881C6.32812 11.9131 5.95898 11.2363 5.92383 11.1821L5.85352 11.0874H3.36035C1.74023 11.0874 0.826172 11.0738 0.755859 11.0535C0.697266 11.0332 0.621094 10.9791 0.585938 10.9283C0.527344 10.8403 0.527344 10.8268 0.527344 5.83505V0.826404L0.612305 0.728262L0.697266 0.630119H7.5H14.3027L14.3877 0.728262Z" fill="#BFBFBF"/>
<path id="Vector_2" d="M4.36532 4.59572C4.13973 4.69725 3.86727 5.01536 3.7911 5.2658C3.70321 5.56022 3.71786 5.93925 3.82333 6.19307C4.20126 7.10681 5.30575 7.10004 5.68661 6.1863C5.78329 5.94941 5.79794 5.54669 5.71298 5.28948C5.62216 5.00521 5.46102 4.792 5.2413 4.65664C5.0743 4.55511 5.0245 4.54157 4.79013 4.53142C4.57333 4.52127 4.49716 4.5348 4.36532 4.59572ZM4.97763 5.2015C5.19735 5.34363 5.2911 5.62452 5.20028 5.89188C5.03622 6.39612 4.39462 6.34874 4.28036 5.82419C4.18075 5.36394 4.6202 4.96798 4.97763 5.2015Z" fill="#BFBFBF"/>
<path id="Vector_3" d="M7.20708 4.55232C6.79985 4.70461 6.5186 5.11072 6.48345 5.59466C6.43364 6.30873 6.89067 6.8739 7.5147 6.86713C7.91607 6.86713 8.26177 6.61331 8.42876 6.19705C8.49907 6.02107 8.51079 5.95339 8.51079 5.68942C8.51079 5.42545 8.49907 5.36115 8.42876 5.19194C8.32915 4.95843 8.15337 4.74861 7.95415 4.63016C7.83403 4.55909 7.76079 4.54217 7.544 4.53202C7.40044 4.52863 7.2481 4.5354 7.20708 4.55232ZM7.68462 5.1784C7.82817 5.24609 7.96294 5.44237 7.98345 5.61835C8.02153 5.90939 7.83696 6.20044 7.58794 6.23766C7.31841 6.28166 7.09575 6.11922 7.02837 5.83494C6.92876 5.39838 7.32134 5.00242 7.68462 5.1784Z" fill="#BFBFBF"/>
<path id="Vector_4" d="M9.96094 4.55206C9.68848 4.6502 9.44238 4.89386 9.31934 5.19506C9.25488 5.3575 9.24316 5.42857 9.24316 5.70607C9.24316 6.00727 9.24902 6.04111 9.34277 6.24078C9.55957 6.70442 9.99023 6.95147 10.418 6.86009C11.0508 6.72472 11.4111 6.0445 11.2236 5.33381C11.168 5.12399 11.1328 5.05969 10.9775 4.87694C10.752 4.61297 10.5586 4.5216 10.2451 4.52498C10.1279 4.52498 10.002 4.53852 9.96094 4.55206ZM10.4385 5.17814C10.6465 5.27628 10.7812 5.59101 10.7227 5.83129C10.6172 6.26447 10.1045 6.39645 9.87305 6.05126C9.72363 5.83467 9.72656 5.54702 9.88184 5.34396C10.0371 5.14091 10.2393 5.07999 10.4385 5.17814Z" fill="#BFBFBF"/>
</g>
</svg>
