<svg width="11" height="11" viewBox="0 0 11 11" fill="none" xmlns="http://www.w3.org/2000/svg">
<g id="date">
<g id="Vector">
<mask id="path-1-inside-1_2_1981" fill="white">
<path d="M1.67146 0.0702114C1.60171 0.134572 1.59902 0.15505 1.58829 0.432969L1.57756 0.725516L1.0222 0.737218C0.507073 0.745994 0.461463 0.751845 0.340732 0.81328C0.193171 0.895193 0.072439 1.04147 0.0295122 1.19652C0.00804878 1.27843 0 2.54223 0 5.89774C0 10.3064 0.00268293 10.4937 0.0509756 10.6048C0.0778049 10.6692 0.142195 10.7628 0.190488 10.8155C0.383659 11.0144 -0.0429268 10.9998 5.5 10.9998C11.0429 10.9998 10.6163 11.0144 10.8095 10.8155C10.8578 10.7628 10.9222 10.6692 10.949 10.6048C10.9973 10.4937 11 10.3064 11 5.86264V1.23747L10.9383 1.10875C10.8578 0.942001 10.6888 0.804503 10.5171 0.763547C10.442 0.745994 10.1656 0.731367 9.90268 0.731367H9.42244L9.41171 0.435895C9.40098 0.15505 9.39829 0.134572 9.32854 0.0702114C9.25342 1.78814e-07 9.24268 0 8.7061 0C8.16683 0 8.15878 1.78814e-07 8.08366 0.0702114C8.01122 0.137497 8.00854 0.15505 8.00049 0.435895L7.98976 0.731367H7.09366H6.19756V0.43882C6.19756 0.163826 6.1922 0.137497 6.13049 0.0731363C6.0661 -3.65078e-07 6.0661 0 5.5 0C4.9339 0 4.9339 -3.65078e-07 4.86951 0.0731363C4.8078 0.137497 4.80244 0.163826 4.80244 0.43882V0.731367H3.90634H3.01024L2.99951 0.435895C2.99146 0.15505 2.98878 0.137497 2.91634 0.0702114C2.84122 1.78814e-07 2.83317 0 2.2939 0C1.75732 0 1.74659 1.78814e-07 1.67146 0.0702114ZM2.52195 1.00929V1.49199H2.2939H2.06585V1.00929V0.526585H2.2939H2.52195V1.00929ZM5.71463 1.00929V1.49199H5.5H5.28537V1.00929V0.526585H5.5H5.71463V1.00929ZM8.93415 1.00929V1.49199H8.7061H8.47805V1.00929V0.526585H8.7061H8.93415V1.00929ZM1.58293 1.50662C1.58293 1.79916 1.62854 1.94836 1.73049 1.98932C1.82707 2.03027 2.80634 2.02735 2.8761 1.98639C2.96195 1.93666 3.00488 1.77868 3.00488 1.50662V1.25795H3.90366H4.80244V1.55342C4.80244 1.84012 4.80512 1.8489 4.88024 1.93373L4.95805 2.01857H5.5H6.04195L6.11976 1.93373C6.19488 1.8489 6.19756 1.84012 6.19756 1.55342V1.25795H7.09634H7.99512V1.52124C7.99512 1.80501 8.03268 1.93373 8.12659 1.98932C8.19366 2.02735 9.17561 2.02735 9.26951 1.98932C9.37146 1.94544 9.41707 1.79916 9.41707 1.50662V1.25503L9.92951 1.2638C10.399 1.27258 10.4446 1.27843 10.4795 1.32816C10.509 1.37497 10.5171 1.54172 10.5171 2.18532V2.98398H5.5H0.482927V2.18532C0.482927 1.36619 0.488293 1.31646 0.590244 1.27843C0.611707 1.26965 0.845122 1.26088 1.10805 1.26088L1.58293 1.25795V1.50662ZM10.5171 6.93921C10.5171 10.087 10.5144 10.3708 10.4715 10.4205C10.4312 10.4702 10.2407 10.4732 5.50537 10.4732C0.960488 10.4732 0.576829 10.4702 0.53122 10.4234C0.48561 10.3796 0.482927 10.2333 0.482927 6.94214V3.51056H5.5H10.5171V6.93921Z"/>
</mask>
<path d="M1.67146 0.0702114C1.60171 0.134572 1.59902 0.15505 1.58829 0.432969L1.57756 0.725516L1.0222 0.737218C0.507073 0.745994 0.461463 0.751845 0.340732 0.81328C0.193171 0.895193 0.072439 1.04147 0.0295122 1.19652C0.00804878 1.27843 0 2.54223 0 5.89774C0 10.3064 0.00268293 10.4937 0.0509756 10.6048C0.0778049 10.6692 0.142195 10.7628 0.190488 10.8155C0.383659 11.0144 -0.0429268 10.9998 5.5 10.9998C11.0429 10.9998 10.6163 11.0144 10.8095 10.8155C10.8578 10.7628 10.9222 10.6692 10.949 10.6048C10.9973 10.4937 11 10.3064 11 5.86264V1.23747L10.9383 1.10875C10.8578 0.942001 10.6888 0.804503 10.5171 0.763547C10.442 0.745994 10.1656 0.731367 9.90268 0.731367H9.42244L9.41171 0.435895C9.40098 0.15505 9.39829 0.134572 9.32854 0.0702114C9.25342 1.78814e-07 9.24268 0 8.7061 0C8.16683 0 8.15878 1.78814e-07 8.08366 0.0702114C8.01122 0.137497 8.00854 0.15505 8.00049 0.435895L7.98976 0.731367H7.09366H6.19756V0.43882C6.19756 0.163826 6.1922 0.137497 6.13049 0.0731363C6.0661 -3.65078e-07 6.0661 0 5.5 0C4.9339 0 4.9339 -3.65078e-07 4.86951 0.0731363C4.8078 0.137497 4.80244 0.163826 4.80244 0.43882V0.731367H3.90634H3.01024L2.99951 0.435895C2.99146 0.15505 2.98878 0.137497 2.91634 0.0702114C2.84122 1.78814e-07 2.83317 0 2.2939 0C1.75732 0 1.74659 1.78814e-07 1.67146 0.0702114ZM2.52195 1.00929V1.49199H2.2939H2.06585V1.00929V0.526585H2.2939H2.52195V1.00929ZM5.71463 1.00929V1.49199H5.5H5.28537V1.00929V0.526585H5.5H5.71463V1.00929ZM8.93415 1.00929V1.49199H8.7061H8.47805V1.00929V0.526585H8.7061H8.93415V1.00929ZM1.58293 1.50662C1.58293 1.79916 1.62854 1.94836 1.73049 1.98932C1.82707 2.03027 2.80634 2.02735 2.8761 1.98639C2.96195 1.93666 3.00488 1.77868 3.00488 1.50662V1.25795H3.90366H4.80244V1.55342C4.80244 1.84012 4.80512 1.8489 4.88024 1.93373L4.95805 2.01857H5.5H6.04195L6.11976 1.93373C6.19488 1.8489 6.19756 1.84012 6.19756 1.55342V1.25795H7.09634H7.99512V1.52124C7.99512 1.80501 8.03268 1.93373 8.12659 1.98932C8.19366 2.02735 9.17561 2.02735 9.26951 1.98932C9.37146 1.94544 9.41707 1.79916 9.41707 1.50662V1.25503L9.92951 1.2638C10.399 1.27258 10.4446 1.27843 10.4795 1.32816C10.509 1.37497 10.5171 1.54172 10.5171 2.18532V2.98398H5.5H0.482927V2.18532C0.482927 1.36619 0.488293 1.31646 0.590244 1.27843C0.611707 1.26965 0.845122 1.26088 1.10805 1.26088L1.58293 1.25795V1.50662ZM10.5171 6.93921C10.5171 10.087 10.5144 10.3708 10.4715 10.4205C10.4312 10.4702 10.2407 10.4732 5.50537 10.4732C0.960488 10.4732 0.576829 10.4702 0.53122 10.4234C0.48561 10.3796 0.482927 10.2333 0.482927 6.94214V3.51056H5.5H10.5171V6.93921Z" fill="white" stroke="white" stroke-width="10" mask="url(#path-1-inside-1_2_1981)"/>
</g>
</g>
</svg>
