<svg width="15" height="15" viewBox="0 0 15 15" fill="none" xmlns="http://www.w3.org/2000/svg">
<g id="Group">
<g id="Vector">
<mask id="path-1-inside-1_1_1875" fill="white">
<path d="M2.27927 0.0957418C2.18415 0.183506 2.18049 0.211431 2.16585 0.590412L2.15122 0.989339L1.3939 1.0053C0.691463 1.01726 0.629268 1.02524 0.464634 1.10902C0.263415 1.22072 0.0987805 1.42018 0.0402439 1.63161C0.0109756 1.74331 0 3.46668 0 8.04238C0 14.0542 0.00365854 14.3095 0.0695122 14.4611C0.106098 14.5489 0.193902 14.6765 0.259756 14.7483C0.523171 15.0196 -0.0585366 14.9997 7.5 14.9997C15.0585 14.9997 14.4768 15.0196 14.7402 14.7483C14.8061 14.6765 14.8939 14.5489 14.9305 14.4611C14.9963 14.3095 15 14.0542 15 7.99451V1.68746L14.9159 1.51193C14.8061 1.28455 14.5756 1.09705 14.3415 1.0412C14.239 1.01726 13.8622 0.997318 13.5037 0.997318H12.8488L12.8341 0.594401C12.8195 0.211431 12.8159 0.183506 12.7207 0.0957418C12.6183 -7.6611e-07 12.6037 -7.6611e-07 11.872 -7.6611e-07C11.1366 -7.6611e-07 11.1256 -7.6611e-07 11.0232 0.0957418C10.9244 0.187495 10.9207 0.211431 10.9098 0.594401L10.8951 0.997318H9.67317H8.45122V0.59839C8.45122 0.223399 8.4439 0.187495 8.35976 0.0997311C8.27195 -7.6611e-07 8.27195 -7.6611e-07 7.5 -7.6611e-07C6.72805 -7.6611e-07 6.72805 -7.6611e-07 6.64024 0.0997311C6.5561 0.187495 6.54878 0.223399 6.54878 0.59839V0.997318H5.32683H4.10488L4.09024 0.594401C4.07927 0.211431 4.07561 0.187495 3.97683 0.0957418C3.87439 -7.6611e-07 3.86341 -7.6611e-07 3.12805 -7.6611e-07C2.39634 -7.6611e-07 2.38171 -7.6611e-07 2.27927 0.0957418ZM3.43902 1.3763V2.03453H3.12805H2.81707V1.3763V0.718069H3.12805H3.43902V1.3763ZM7.79268 1.3763V2.03453H7.5H7.20732V1.3763V0.718069H7.5H7.79268V1.3763ZM12.1829 1.3763V2.03453H11.872H11.561V1.3763V0.718069H11.872H12.1829V1.3763ZM2.15854 2.05448C2.15854 2.4534 2.22073 2.65686 2.35976 2.71271C2.49146 2.76856 3.82683 2.76457 3.92195 2.70872C4.03902 2.6409 4.09756 2.42548 4.09756 2.05448V1.71539H5.32317H6.54878V2.1183C6.54878 2.50925 6.55244 2.52122 6.65488 2.63691L6.76098 2.7526H7.5H8.23902L8.34512 2.63691C8.44756 2.52122 8.45122 2.50925 8.45122 2.1183V1.71539H9.67683H10.9024V2.07442C10.9024 2.46138 10.9537 2.63691 11.0817 2.71271C11.1732 2.76457 12.5122 2.76457 12.6402 2.71271C12.7793 2.65287 12.8415 2.4534 12.8415 2.05448V1.7114L13.5402 1.72337C14.1805 1.73533 14.2427 1.74331 14.2902 1.81113C14.3305 1.87496 14.3415 2.10235 14.3415 2.97999V4.06906H7.5H0.658537V2.97999C0.658537 1.86299 0.665854 1.79517 0.804878 1.74331C0.834146 1.73134 1.15244 1.71938 1.51098 1.71938L2.15854 1.71539V2.05448ZM14.3415 9.46256C14.3415 13.755 14.3378 14.142 14.2793 14.2098C14.2244 14.2776 13.9646 14.2816 7.50732 14.2816C1.30976 14.2816 0.786585 14.2776 0.72439 14.2138C0.662195 14.1539 0.658537 13.9545 0.658537 9.46655V4.78713H7.5H14.3415V9.46256Z"/>
</mask>
<path d="M2.27927 0.0957418C2.18415 0.183506 2.18049 0.211431 2.16585 0.590412L2.15122 0.989339L1.3939 1.0053C0.691463 1.01726 0.629268 1.02524 0.464634 1.10902C0.263415 1.22072 0.0987805 1.42018 0.0402439 1.63161C0.0109756 1.74331 0 3.46668 0 8.04238C0 14.0542 0.00365854 14.3095 0.0695122 14.4611C0.106098 14.5489 0.193902 14.6765 0.259756 14.7483C0.523171 15.0196 -0.0585366 14.9997 7.5 14.9997C15.0585 14.9997 14.4768 15.0196 14.7402 14.7483C14.8061 14.6765 14.8939 14.5489 14.9305 14.4611C14.9963 14.3095 15 14.0542 15 7.99451V1.68746L14.9159 1.51193C14.8061 1.28455 14.5756 1.09705 14.3415 1.0412C14.239 1.01726 13.8622 0.997318 13.5037 0.997318H12.8488L12.8341 0.594401C12.8195 0.211431 12.8159 0.183506 12.7207 0.0957418C12.6183 -7.6611e-07 12.6037 -7.6611e-07 11.872 -7.6611e-07C11.1366 -7.6611e-07 11.1256 -7.6611e-07 11.0232 0.0957418C10.9244 0.187495 10.9207 0.211431 10.9098 0.594401L10.8951 0.997318H9.67317H8.45122V0.59839C8.45122 0.223399 8.4439 0.187495 8.35976 0.0997311C8.27195 -7.6611e-07 8.27195 -7.6611e-07 7.5 -7.6611e-07C6.72805 -7.6611e-07 6.72805 -7.6611e-07 6.64024 0.0997311C6.5561 0.187495 6.54878 0.223399 6.54878 0.59839V0.997318H5.32683H4.10488L4.09024 0.594401C4.07927 0.211431 4.07561 0.187495 3.97683 0.0957418C3.87439 -7.6611e-07 3.86341 -7.6611e-07 3.12805 -7.6611e-07C2.39634 -7.6611e-07 2.38171 -7.6611e-07 2.27927 0.0957418ZM3.43902 1.3763V2.03453H3.12805H2.81707V1.3763V0.718069H3.12805H3.43902V1.3763ZM7.79268 1.3763V2.03453H7.5H7.20732V1.3763V0.718069H7.5H7.79268V1.3763ZM12.1829 1.3763V2.03453H11.872H11.561V1.3763V0.718069H11.872H12.1829V1.3763ZM2.15854 2.05448C2.15854 2.4534 2.22073 2.65686 2.35976 2.71271C2.49146 2.76856 3.82683 2.76457 3.92195 2.70872C4.03902 2.6409 4.09756 2.42548 4.09756 2.05448V1.71539H5.32317H6.54878V2.1183C6.54878 2.50925 6.55244 2.52122 6.65488 2.63691L6.76098 2.7526H7.5H8.23902L8.34512 2.63691C8.44756 2.52122 8.45122 2.50925 8.45122 2.1183V1.71539H9.67683H10.9024V2.07442C10.9024 2.46138 10.9537 2.63691 11.0817 2.71271C11.1732 2.76457 12.5122 2.76457 12.6402 2.71271C12.7793 2.65287 12.8415 2.4534 12.8415 2.05448V1.7114L13.5402 1.72337C14.1805 1.73533 14.2427 1.74331 14.2902 1.81113C14.3305 1.87496 14.3415 2.10235 14.3415 2.97999V4.06906H7.5H0.658537V2.97999C0.658537 1.86299 0.665854 1.79517 0.804878 1.74331C0.834146 1.73134 1.15244 1.71938 1.51098 1.71938L2.15854 1.71539V2.05448ZM14.3415 9.46256C14.3415 13.755 14.3378 14.142 14.2793 14.2098C14.2244 14.2776 13.9646 14.2816 7.50732 14.2816C1.30976 14.2816 0.786585 14.2776 0.72439 14.2138C0.662195 14.1539 0.658537 13.9545 0.658537 9.46655V4.78713H7.5H14.3415V9.46256Z" fill="white" stroke="white" stroke-width="10" mask="url(#path-1-inside-1_1_1875)"/>
</g>
</g>
</svg>
