<svg width="20" height="16" viewBox="0 0 20 16" fill="none" xmlns="http://www.w3.org/2000/svg">
<path d="M0.632812 0.141714C0.363281 0.297143 0.226562 0.466286 0.09375 0.8L0 1.02857V8V14.9714L0.09375 15.2C0.226562 15.5337 0.363281 15.7029 0.632812 15.8583L0.871094 16H10H19.1289L19.3672 15.8583C19.6367 15.7029 19.7734 15.5337 19.9062 15.2L20 14.9714V8V1.02857L19.9062 0.8C19.7734 0.466286 19.6367 0.297143 19.3672 0.141714L19.1289 0H15.2539H11.3789L11.2734 0.118857C11.1289 0.292572 11.1289 0.621715 11.2734 0.795428L11.3789 0.914286H14.9297H18.4805L14.2617 4.98286C11.9414 7.21829 10.0234 9.05143 10 9.05143C9.97656 9.05143 8.0625 7.22743 5.75 4.992L1.54297 0.937143L5.08203 0.923429L8.62109 0.914286L8.72656 0.795428C8.87109 0.621715 8.87109 0.292572 8.72656 0.118857L8.62109 0H4.74609H0.871094L0.632812 0.141714ZM7.51953 8C7.51953 8.01829 6.00391 9.49943 4.15234 11.2869L0.78125 14.5371V8V1.46286L4.15234 4.71314C6.00391 6.50057 7.51953 7.98171 7.51953 8ZM19.2188 8V14.5371L15.8516 11.2869C13.9961 9.49943 12.4805 8.01829 12.4805 8C12.4805 7.97257 19.1602 1.48571 19.2109 1.46743C19.2148 1.46286 19.2188 4.40229 19.2188 8ZM8.90625 9.30286C9.58984 9.96571 9.72266 10.0571 10 10.0571C10.2461 10.0571 10.3906 9.97486 10.7344 9.64571C10.9219 9.46743 11.2344 9.16571 11.4336 8.97829L11.793 8.63543L15.1367 11.8583L18.4805 15.0857H10.0117C2.34766 15.0857 1.55078 15.0811 1.60547 15.0126C1.69531 14.912 8.17969 8.64914 8.20312 8.64457C8.21484 8.64 8.53125 8.93714 8.90625 9.30286Z" fill="white"/>
<path d="M9.71094 0.118634C9.62891 0.214634 9.60938 0.283205 9.60938 0.45692C9.60938 0.630634 9.62891 0.699205 9.71094 0.795205C9.79297 0.891205 9.85156 0.914062 10 0.914062C10.1484 0.914062 10.207 0.891205 10.2891 0.795205C10.3711 0.699205 10.3906 0.630634 10.3906 0.45692C10.3906 0.283205 10.3711 0.214634 10.2891 0.118634C10.207 0.0226339 10.1484 -0.000223279 10 -0.000223279C9.85156 -0.000223279 9.79297 0.0226339 9.71094 0.118634Z" fill="white"/>
</svg>
