<svg width="50" height="50" viewBox="0 0 50 50" fill="none" xmlns="http://www.w3.org/2000/svg">
<g id="face">
<rect id="Rectangle 6" width="50" height="50" rx="25" fill="#1E1B1B"/>
<g id="Group">
<path id="Vector" d="M27.5865 13.0313C27.2857 13.0547 26.594 13.1766 26.1669 13.2797C24.2241 13.7438 22.7564 14.8923 22.1188 16.444C21.7759 17.2831 21.7398 17.5738 21.7098 19.7583L21.6797 21.7647H19.3398H17V23.921V26.0774H19.3459H21.6917V31.5387V37H24.5489H27.406V31.5387V26.0774H29.7699H32.1278L32.4767 23.9539C32.6692 22.7913 32.8256 21.8209 32.8195 21.7975C32.8195 21.7787 31.5985 21.7647 30.1068 21.7647H27.394L27.418 20.0864C27.4421 18.4926 27.4481 18.3988 27.5805 18.0847C27.6887 17.8222 27.785 17.7097 28.0316 17.5175C28.597 17.0769 29.2226 16.9831 31.6947 16.9831H33V15.0658V13.1485L32.6571 13.1203C31.4361 13.0172 28.4045 12.961 27.5865 13.0313Z" fill="white"/>
</g>
</g>
</svg>
