<svg width="50" height="50" viewBox="0 0 50 50" fill="none" xmlns="http://www.w3.org/2000/svg">
<g id="inst">
<rect id="Rectangle 7" width="50" height="50" rx="25" fill="#1E1B1B"/>
<g id="Group">
<path id="Vector" d="M20.4239 13.0446C18.5833 13.1525 17.1814 13.6966 16.1621 14.6862C14.7989 16.0136 14.2011 17.552 14.0721 20.0754C13.956 22.3595 13.9861 29.4419 14.1194 30.7223C14.3 32.514 14.8591 33.9117 15.8052 34.953C16.5707 35.7925 17.3104 36.2662 18.3941 36.6086C19.5552 36.9745 20.4153 37.0214 25.6619 36.9932C29.8764 36.9745 30.2161 36.9604 31.0805 36.7681C33.6178 36.2099 35.338 34.3198 35.8282 31.5572C36.0002 30.591 36.0088 30.0797 35.9959 24.5546L35.9787 19.2546L35.8798 18.6683C35.6218 17.1346 35.1143 16.0042 34.2715 15.0661C33.0802 13.7388 31.7514 13.1806 29.4678 13.0399C28.5432 12.9837 21.3786 12.9883 20.4239 13.0446ZM29.8549 15.2913C31.1364 15.4273 32.0223 15.7978 32.6803 16.4779C33.1705 16.9798 33.4845 17.5379 33.6995 18.2884C33.8629 18.8512 33.936 19.3718 33.9833 20.3333C34.0392 21.4262 34.0392 28.6211 33.9833 29.6951C33.8844 31.6416 33.5576 32.6031 32.7018 33.499C32.0223 34.2025 31.2396 34.5637 30.0484 34.7091C28.9819 34.8404 21.0303 34.8404 20.0283 34.7091C19.194 34.6012 18.5059 34.376 18.0028 34.0477C17.7146 33.8648 17.147 33.2926 16.9362 32.9783C16.5965 32.4765 16.3299 31.7167 16.2052 30.9099C16.089 30.1501 16.0503 28.6304 16.0503 24.9767C16.0503 21.384 16.089 19.9065 16.2009 19.1608C16.3901 17.8756 16.833 16.9704 17.5856 16.3091C17.9812 15.962 18.2694 15.7931 18.8026 15.6008C19.366 15.3992 19.9982 15.296 21.0045 15.2444C22.1484 15.1881 29.2485 15.2256 29.8549 15.2913Z" fill="white"/>
<path id="Vector_2" d="M30.5344 17.1818C29.8893 17.3835 29.498 18.0823 29.6055 18.8375C29.6528 19.1658 29.756 19.3909 29.971 19.6208C30.2333 19.9116 30.4226 19.996 30.8569 20.0194C31.2138 20.0382 31.2482 20.0335 31.5106 19.8928C31.8073 19.7333 31.9922 19.5269 32.147 19.1846C32.2761 18.8891 32.2804 18.3122 32.1513 18.0073C31.8675 17.3413 31.1751 16.9895 30.5344 17.1818Z" fill="white"/>
<path id="Vector_3" d="M24.2901 18.861C23.4257 18.9877 22.5699 19.3488 21.813 19.9023C21.4088 20.1978 20.6089 21.0702 20.338 21.5158C19.9122 22.2193 19.5897 23.0729 19.4435 23.8984C19.3532 24.3909 19.3661 25.7182 19.465 26.2107C19.9595 28.7153 21.6281 30.5399 23.9289 31.0839C24.4277 31.2012 25.6491 31.2012 26.1479 31.0839C27.3091 30.8072 28.1864 30.2913 29.0206 29.386C29.8678 28.4714 30.3624 27.4724 30.6161 26.1732C30.7236 25.6198 30.7236 24.3815 30.6161 23.8281C30.1259 21.3094 28.4229 19.4426 26.135 18.9267C25.7265 18.8329 24.7073 18.7954 24.2901 18.861ZM25.9243 21.1546C27.2187 21.5158 28.2165 22.6039 28.5691 24.0391C28.6422 24.3299 28.6637 24.5504 28.6637 25.0006C28.6637 25.676 28.5734 26.1122 28.3283 26.6751C27.5456 28.4761 25.6534 29.3954 23.9633 28.7951C22.7247 28.3589 21.8259 27.3036 21.4819 25.8918C21.3787 25.4697 21.383 24.5363 21.4862 24.086C21.9249 22.224 23.4816 20.9482 25.1932 21.042C25.4125 21.0514 25.7394 21.103 25.9243 21.1546Z" fill="white"/>
</g>
</g>
</svg>
