<svg width="20" height="21" viewBox="0 0 20 21" fill="none" xmlns="http://www.w3.org/2000/svg">
<path d="M6.50962 0.273955C5.2613 0.393067 3.99656 0.861302 2.9782 1.58008C2.48134 1.93331 1.68061 2.73013 1.32336 3.23122C0.994855 3.69535 0.52263 4.62361 0.354272 5.14113C-0.126165 6.59923 -0.117953 8.2668 0.37891 9.72079C1.09751 11.8402 2.83037 13.5447 4.94922 14.2183C6.43981 14.6906 8.01663 14.6701 9.50722 14.1567L9.97944 13.9965L12.7923 16.8018C14.3403 18.342 15.679 19.6605 15.7693 19.7303C16.2128 20.0671 16.7589 20.2478 17.3503 20.2478C17.8307 20.252 18.0894 20.1944 18.5411 19.9809C18.9887 19.7673 19.4732 19.2991 19.6991 18.8596C20.1261 18.034 20.0974 17.0318 19.621 16.2309C19.5102 16.0461 18.7464 15.2533 16.607 13.1093L13.7367 10.2342L13.8763 9.84401C14.792 7.28515 14.1966 4.43056 12.3447 2.48369C11.5768 1.67455 10.735 1.11185 9.67968 0.705224C8.75576 0.347887 7.51977 0.179487 6.50962 0.273955ZM8.36567 1.46508C10.4763 1.90867 12.2215 3.45713 12.8867 5.46971C13.092 6.08992 13.1659 6.50065 13.1865 7.19479C13.2193 8.13126 13.0961 8.83771 12.7471 9.72079C12.3981 10.5998 11.6836 11.5362 10.8787 12.1687C10.115 12.7684 9.30601 13.1381 8.27533 13.3599C7.74561 13.4749 6.51783 13.4667 5.94705 13.3434C4.74391 13.0847 3.73786 12.5343 2.87554 11.6718C2.01322 10.8092 1.46297 9.79883 1.20428 8.59949C1.08519 8.03679 1.07287 6.84977 1.18374 6.29939C1.70525 3.69946 3.77071 1.74438 6.3659 1.38704C6.8217 1.32543 7.90165 1.3665 8.36567 1.46508ZM13.749 11.8073L14.2705 12.3289L13.17 13.4297L12.0737 14.5264L11.5398 13.9924C11.2483 13.7008 11.0183 13.4543 11.0265 13.442C11.0389 13.4338 11.2031 13.3106 11.3961 13.1709C11.8355 12.8506 12.6609 12.0168 12.9565 11.5978C13.0797 11.4253 13.1906 11.2816 13.2029 11.2816C13.2152 11.2816 13.4616 11.5157 13.749 11.8073ZM16.8452 14.9083C18.4877 16.5513 18.6273 16.7032 18.7546 16.9702C18.8778 17.229 18.8901 17.2947 18.8901 17.6274C18.8901 17.9642 18.8778 18.0258 18.7587 18.2681C18.5945 18.5967 18.3029 18.8842 17.9744 19.0362C17.7773 19.1265 17.6829 19.1471 17.3708 19.1471C17.0382 19.1471 16.9725 19.1348 16.7138 19.0115C16.451 18.8883 16.2949 18.7405 14.6401 17.0934L12.8539 15.3067L13.942 14.2183C14.5415 13.6186 15.0384 13.1299 15.0507 13.1299C15.063 13.1299 15.872 13.9308 16.8452 14.9083Z" fill="white"/>
</svg>
