<svg width="15" height="20" viewBox="0 0 15 20" fill="none" xmlns="http://www.w3.org/2000/svg">
<path d="M6.76927 0.0345078C5.22979 0.176384 3.71084 0.810883 2.54905 1.79613C-0.488845 4.3696 -0.862424 8.75198 1.70337 11.7747C1.83884 11.9363 3.20179 13.2684 4.72484 14.7305L7.5 17.3906L10.2752 14.7305C11.7982 13.2684 13.1612 11.9363 13.2966 11.7747C15.3903 9.30766 15.571 5.83959 13.7441 3.21489C12.2005 0.996109 9.528 -0.221657 6.76927 0.0345078ZM8.826 0.854235C10.1766 1.13404 11.2604 1.70549 12.2457 2.64738C13.2392 3.6011 13.8303 4.64941 14.1177 5.97358C14.1998 6.33615 14.2121 6.51349 14.208 7.22287C14.208 7.92437 14.1957 8.1096 14.1177 8.44458C13.8755 9.50471 13.4608 10.3678 12.8122 11.1639C12.6726 11.3373 11.4164 12.5708 10.0288 13.9028L7.5 16.3266L4.97116 13.9028C3.58358 12.5708 2.32737 11.3373 2.18368 11.1639C1.54737 10.3875 1.12452 9.50471 0.882314 8.44458C0.804314 8.1096 0.791998 7.92437 0.791998 7.22287C0.787893 6.50955 0.800209 6.33615 0.882314 5.96964C1.17379 4.64547 1.76084 3.60504 2.75432 2.64738C3.82168 1.62273 5.02863 1.02764 6.49832 0.799061C7.03611 0.716299 8.29232 0.747828 8.826 0.854235Z" fill="white"/>
<path d="M8.39909 1.83927C8.27182 1.96144 8.24309 2.13485 8.32519 2.2846C8.38266 2.38707 8.60435 2.47377 8.80551 2.47377C9.27351 2.47377 10.1808 2.83634 10.7678 3.25803C11.7777 3.97923 12.4264 5.10241 12.4264 6.12707C12.4264 6.37929 12.5044 6.54087 12.6521 6.60393C12.7917 6.66698 12.8574 6.66304 12.997 6.5921C13.194 6.49752 13.2269 6.3517 13.1694 5.85908C13.0257 4.57826 12.3525 3.47084 11.2399 2.6787C10.6118 2.22943 9.88109 1.90627 9.22835 1.78804C8.70698 1.69345 8.54277 1.70134 8.39909 1.83927Z" fill="white"/>
<path d="M6.80205 3.59724C5.46374 3.86128 4.45795 4.74406 4.031 6.02094C3.8791 6.47416 3.84216 7.22295 3.94479 7.71557C4.08847 8.40524 4.40868 8.96486 4.95468 9.48901C5.68542 10.1905 6.49826 10.5137 7.52047 10.5137C8.54269 10.5137 9.35553 10.1905 10.0863 9.48901C10.6323 8.96486 10.9525 8.40524 11.0962 7.71557C11.1865 7.27812 11.1577 6.48204 11.0346 6.08006C10.6282 4.76377 9.52795 3.81399 8.14037 3.58147C7.81195 3.52236 7.13047 3.53418 6.80205 3.59724ZM8.21837 4.34602C9.01069 4.53913 9.72911 5.09875 10.0904 5.80419C10.3162 6.24952 10.3901 6.55298 10.3901 7.0456C10.3901 8.09785 9.78248 9.02004 8.76848 9.50872C8.36616 9.70577 8.03774 9.77671 7.541 9.78065C7.03605 9.78459 6.77742 9.72941 6.32995 9.52842C5.68953 9.24073 5.26258 8.84663 4.95468 8.2476C4.39226 7.15595 4.59753 5.94607 5.49658 5.07905C6.21911 4.38543 7.24542 4.10956 8.21837 4.34602Z" fill="white"/>
<path d="M3.38247 15.0056C2.17552 15.4194 1.41194 15.9356 1.09173 16.5622C0.964464 16.8145 0.952148 16.8657 0.952148 17.2125C0.952148 17.5554 0.964464 17.6106 1.08762 17.851C1.90046 19.451 5.87847 20.3771 9.65531 19.853C11.8311 19.5456 13.4322 18.7928 13.9166 17.847C14.0356 17.6106 14.0479 17.5554 14.0479 17.2125C14.0479 16.8657 14.0356 16.8145 13.9084 16.5622C13.5799 15.9238 12.7835 15.3918 11.5519 14.9819L11.1045 14.8361L10.8007 15.1277C10.6324 15.2854 10.4969 15.4272 10.4969 15.4391C10.4969 15.4509 10.7063 15.5139 10.9608 15.5809C12.2457 15.9277 13.1653 16.5228 13.3049 17.0982C13.3706 17.378 13.0996 17.7958 12.6604 18.0953C11.4986 18.8874 9.4911 19.3052 7.13057 19.25C6.11657 19.2264 5.55415 19.1672 4.7331 19.0017C2.83647 18.6155 1.54331 17.7958 1.71162 17.0825C1.84299 16.5189 2.74204 15.9356 4.02699 15.5849C4.27741 15.5179 4.49089 15.4548 4.4991 15.4509C4.52783 15.4312 3.91615 14.8479 3.86689 14.8519C3.84636 14.8519 3.62468 14.9189 3.38247 15.0056Z" fill="white"/>
</svg>
