<svg width="20" height="20" viewBox="0 0 20 20" fill="none" xmlns="http://www.w3.org/2000/svg">
<path d="M2.82757 0.0597625C2.61662 0.13399 2.38224 0.337138 1.53065 1.18099C0.589216 2.11469 0.34702 2.48192 0.124357 3.31795C-0.00845976 3.81801 -0.0397108 4.84156 0.0540422 5.48617C0.440773 8.08412 2.3588 11.3736 5.1753 14.2528C8.359 17.511 11.82 19.5894 14.6678 19.9644C15.2303 20.0386 16.2264 19.9917 16.6796 19.8706C17.5194 19.648 17.8827 19.4096 18.8164 18.4681C19.9414 17.3313 20 17.2453 20 16.6789C20 16.1436 20.0117 16.1593 17.9999 14.1551C15.9999 12.1627 16.1053 12.2448 15.5077 12.2448C15.0194 12.2487 14.9139 12.3112 14.1365 13.0691C13.4607 13.7293 13.2849 13.8543 12.863 13.9637C12.2029 14.1356 11.6755 13.9559 10.4489 13.1433C9.68717 12.6354 9.13637 12.1862 8.47619 11.522C7.8121 10.8618 7.36287 10.3109 6.85504 9.54913C6.04252 8.32243 5.86282 7.79503 6.0347 7.13479C6.14408 6.70896 6.26909 6.53316 6.92926 5.8573C7.65976 5.11503 7.73788 4.98611 7.76523 4.53293C7.77695 4.29462 7.76523 4.18914 7.69491 4.00162C7.61288 3.77894 7.51522 3.67346 5.84329 1.99749C3.82369 -0.0300916 3.85495 -0.00665142 3.30415 0.00116197C3.12836 0.00116197 2.91742 0.0285089 2.82757 0.0597625Z" fill="#C49B63"/>
</svg>
