<svg width="16" height="16" viewBox="0 0 16 16" fill="none" xmlns="http://www.w3.org/2000/svg">
<path d="M2.26206 0.0478106C2.0933 0.107192 1.90579 0.269711 1.22452 0.944788C0.471373 1.69175 0.277616 1.98553 0.0994856 2.65436C-0.00676781 3.05441 -0.0317686 3.87325 0.0432338 4.38893C0.352619 6.4673 1.88704 9.09885 4.14024 11.4022C6.6872 14.0088 9.45604 15.6715 11.7342 15.9715C12.1842 16.0309 12.9812 15.9934 13.3437 15.8965C14.0156 15.7184 14.3062 15.5277 15.0531 14.7745C15.9531 13.865 16 13.7963 16 13.3431C16 12.9149 16.0094 12.9274 14.3999 11.3241C12.7999 9.73017 12.8843 9.79581 12.4061 9.79581C12.0155 9.79893 11.9311 9.84894 11.3092 10.4553C10.7686 10.9834 10.6279 11.0835 10.2904 11.171C9.7623 11.3085 9.34041 11.1647 8.35913 10.5146C7.74973 10.1083 7.30909 9.74892 6.78095 9.21761C6.24968 8.68943 5.8903 8.24875 5.48403 7.63931C4.83401 6.65794 4.69026 6.23602 4.82776 5.70784C4.91527 5.36717 5.01527 5.22653 5.54341 4.68584C6.1278 4.09202 6.19031 3.98889 6.21218 3.62635C6.22156 3.4357 6.21218 3.35131 6.15593 3.2013C6.0903 3.02315 6.01218 2.93877 4.67463 1.59799C3.05896 -0.0240726 3.08396 -0.0053215 2.64332 0.000929832C2.50269 0.000929832 2.33393 0.0228071 2.26206 0.0478106Z" fill="white"/>
</svg>
