<svg width="50" height="50" viewBox="0 0 50 50" fill="none" xmlns="http://www.w3.org/2000/svg">
<g id="twiter">
<rect id="Rectangle 5" width="50" height="50" rx="25" fill="#1E1B1B"/>
<g id="Group">
<path id="Vector" d="M28.6413 13.0772C27.1451 13.4872 25.9586 14.5844 25.2504 16.2188C24.7626 17.3391 24.575 18.8579 24.7532 20.1573L24.7861 20.3768H24.6031C24.5 20.3768 24.1529 20.3363 23.834 20.2901C20.7855 19.8281 17.9949 18.1765 15.7999 15.5315C15.4951 15.1677 15.1293 14.6884 14.9839 14.4747C14.8338 14.261 14.6978 14.082 14.679 14.082C14.5571 14.082 14.1631 15.3698 14.0599 16.0975C13.741 18.3844 14.4586 20.6135 15.9735 22.0399L16.1095 22.167L15.8797 22.1323C15.284 22.0515 14.6274 21.8147 14.1725 21.5317C14.0693 21.4682 13.9755 21.4162 13.9568 21.4162C13.938 21.4162 13.938 21.6472 13.9521 21.9244C14.0553 23.7262 14.7681 25.3317 15.9313 26.4001C16.3815 26.8159 16.8318 27.0988 17.357 27.3125L17.751 27.4684L17.479 27.5377C17.1601 27.6186 16.2127 27.6417 15.8984 27.5782C15.739 27.5435 15.6733 27.5493 15.6733 27.5955C15.6733 27.763 15.9922 28.583 16.2455 29.0508C17.0475 30.5581 18.417 31.5918 19.8568 31.7824L20.1757 31.8228L19.9647 32.0249C19.0501 32.8796 17.6384 33.6708 16.3534 34.0346C15.5232 34.2714 14.1537 34.3984 13.4127 34.3118C13.1829 34.2829 13 34.2772 13 34.3003C13 34.3234 13.2392 34.5082 13.53 34.7161C15.3169 35.9866 17.0709 36.6796 19.2284 36.9568C19.8943 37.0434 21.9908 36.9914 22.6146 36.8759C25.3113 36.3619 27.4453 35.2358 29.3729 33.3012C32.5715 30.0961 34.5695 24.9274 34.5741 19.8455V19.0023L34.9916 18.5923C35.5215 18.0668 36.3564 16.9984 36.7316 16.3631C36.891 16.0917 37.013 15.8549 36.9989 15.8376C36.9895 15.8203 36.8207 15.8838 36.6331 15.9762C36.2485 16.1668 35.6153 16.4093 35.2542 16.5075C34.8462 16.623 34.3303 16.727 34.3725 16.6865C34.3912 16.6634 34.5319 16.5364 34.6773 16.3978C35.0197 16.0802 35.5309 15.416 35.7607 14.9887C35.9577 14.6306 36.2813 13.8106 36.3329 13.5507C36.3657 13.3948 36.3517 13.4006 35.7373 13.7817C35.1182 14.1686 34.2693 14.5556 33.5799 14.7635L33.2234 14.879L33.0171 14.6191C32.5574 14.0416 31.6241 13.4006 30.8925 13.158C30.3813 12.9905 29.129 12.9443 28.6413 13.0772Z" fill="white"/>
</g>
</g>
</svg>
